# xmcd
#
# Track frame offsets:
#	150
#	17787
#	35212
#	63680
#
# Disc length: 1137 seconds
#
# Revision: 1
# Processed by: cddbd v1.5.1PL0 Copyright (c) Steve Scherf et al.
# Submitted via: audiograbber 1.83.01
#
DISCID=36046f04
DTITLE=Huey Lewis And The News - Walking With The Kid
DYEAR=1989
DGENRE=
TTITLE0=Walking With The Kid
TTITLE1=Bad Is Bad
TTITLE2=Back In Time
TTITLE3=I Want A New Drug
EXTD=
EXTT0=
EXTT1=
EXTT2=
EXTT3=
PLAYORDER=
